<svg width="16" height="7" viewBox="0 0 16 7" fill="none" xmlns="http://www.w3.org/2000/svg">
<path d="M9.69427 0.7275C9.56661 0.732462 9.4435 0.781533 9.34201 0.867909C9.24052 0.954284 9.16568 1.07368 9.12787 1.20955C9.09007 1.34541 9.09117 1.49101 9.13102 1.62615C9.17087 1.76129 9.24749 1.87927 9.35027 1.96373L13.5588 5.52911H0.615522C0.452276 5.52911 0.295715 5.60132 0.180282 5.72985C0.0648494 5.85838 0 6.03271 0 6.21448C0 6.39626 0.0648494 6.57058 0.180282 6.69912C0.295715 6.82765 0.452276 6.89986 0.615522 6.89986H15.3843C15.5131 6.89992 15.6387 6.85497 15.7434 6.77133C15.848 6.6877 15.9265 6.5696 15.9677 6.43369C16.0089 6.29777 16.0107 6.15089 15.973 6.01374C15.9352 5.8766 15.8598 5.7561 15.7573 5.66923L10.0959 0.872696C9.98157 0.773078 9.83933 0.721652 9.69427 0.7275Z" fill="white"/>
</svg>
